/* XPM */
static char *door_closed32[] = {
/* columns rows colors chars-per-pixel */
"32 32 7 1 ",
"  c #7D3007",
". c #6D7177",
"X c #9A4010",
"o c #AF5423",
"O c #80878C",
"+ c #9EA8A7",
"@ c #B7BFBD",
/* pixels */
"OOOO++++++++++++++++++++OOOO....",
"OOOO++++++++++++++++++++OOOO....",
"OOOO++++++++++++++++++++OOOO....",
"OOOO++++++++++++++++++++OOOO....",
"                                ",
"                                ",
"                                ",
"                                ",
"++++@@@@ooooXXXXooooXXXXoooo    ",
"++++@@@@ooooXXXXooooXXXXoooo    ",
"++++@@@@ooooXXXXooooXXXXoooo    ",
"++++@@@@ooooXXXXooooXXXXoooo    ",
"        ooooXXXXooooXXXX@@@@    ",
"        ooooXXXXooooXXXX@@@@    ",
"        ooooXXXXooooXXXX@@@@    ",
"        ooooXXXXooooXXXX@@@@    ",
"ooooXXXXooooXXXXoooo++++    ....",
"ooooXXXXooooXXXXoooo++++    ....",
"ooooXXXXooooXXXXoooo++++    ....",
"ooooXXXXooooXXXXoooo++++    ....",
"++++@@@@ooooXXXXoooo    OOOO    ",
"++++@@@@ooooXXXXoooo    OOOO    ",
"++++@@@@ooooXXXXoooo    OOOO    ",
"++++@@@@ooooXXXXoooo    OOOO    ",
"        ooooXXXXooooXXXX        ",
"        ooooXXXXooooXXXX        ",
"        ooooXXXXooooXXXX        ",
"        ooooXXXXooooXXXX        ",
"++++@@@@@@@@@@@@@@@@@@@@++++....",
"++++@@@@@@@@@@@@@@@@@@@@++++....",
"++++@@@@@@@@@@@@@@@@@@@@++++....",
"++++@@@@@@@@@@@@@@@@@@@@++++...."
};
