/* XPM */
static char *loot32[] = {
/* columns rows colors chars-per-pixel */
"32 32 8 1 ",
"  c None",
". c black",
"X c #4B2E07",
"o c #574C49",
"O c #746966",
"+ c #8A7A75",
"@ c #99908E",
"# c #BDB5B3",
/* pixels */
"                ........        ",
"                ........        ",
"                ........        ",
"                ........        ",
"            ....oooo++++....    ",
"            ....oooo++++....    ",
"            ....oooo++++....    ",
"            ....oooo++++....    ",
"            ....XXXX....        ",
"            ....XXXX....        ",
"            ....XXXX....        ",
"            ....XXXX....        ",
"        ....OOOO@@@@####....    ",
"        ....OOOO@@@@####....    ",
"        ....OOOO@@@@####....    ",
"        ....OOOO@@@@####....    ",
"    ....ooooOOOO++++@@@@####....",
"    ....ooooOOOO++++@@@@####....",
"    ....ooooOOOO++++@@@@####....",
"    ....ooooOOOO++++@@@@####....",
"    ....oooo++++++++@@@@####....",
"    ....oooo++++++++@@@@####....",
"    ....oooo++++++++@@@@####....",
"    ....oooo++++++++@@@@####....",
"    ....ooooOOOO@@@@@@@@....    ",
"    ....ooooOOOO@@@@@@@@....    ",
"    ....ooooOOOO@@@@@@@@....    ",
"    ....ooooOOOO@@@@@@@@....    ",
"        ................        ",
"        ................        ",
"        ................        ",
"        ................        "
};
