/* XPM */
static char *character32[] = {
/* columns rows colors chars-per-pixel */
"32 32 7 1 ",
"  c None",
". c black",
"X c #BB9E79",
"o c #CDAC85",
"O c #DDB78F",
"+ c #EEC39A",
"@ c #FACBA6",
/* pixels */
"                                ",
"                                ",
"                                ",
"                                ",
"            ................    ",
"            ................    ",
"            ................    ",
"            ................    ",
"        ....OOOO++++++++@@@@....",
"        ....OOOO++++++++@@@@....",
"        ....OOOO++++++++@@@@....",
"        ....OOOO++++++++@@@@....",
"        ....OOOO....++++........",
"        ....OOOO....++++........",
"        ....OOOO....++++........",
"        ....OOOO....++++........",
"        ....OOOO++++++++@@@@....",
"        ....OOOO++++++++@@@@....",
"        ....OOOO++++++++@@@@....",
"        ....OOOO++++++++@@@@....",
"        ....XXXXooooOOOO....    ",
"        ....XXXXooooOOOO....    ",
"        ....XXXXooooOOOO....    ",
"        ....XXXXooooOOOO....    ",
"    ....OOOOXXXXooooOOOO@@@@....",
"    ....OOOOXXXXooooOOOO@@@@....",
"    ....OOOOXXXXooooOOOO@@@@....",
"    ....OOOOXXXXooooOOOO@@@@....",
"        ....oooo....++++....    ",
"        ....oooo....++++....    ",
"        ....oooo....++++....    ",
"        ....oooo....++++....    "
};
